# xmcd
#
# Track frame offsets: 
#        150
#        18360
#        43150
#        62740
#
# Disc length: 1161 seconds
#
# Revision: 0
# Processed by: cddbd v1.5.2PL0 Copyright (c) Steve Scherf et al.
# Submitted via: ExactAudioCopy v1.0b3
#
DISCID=2e048704
DTITLE=Massimo - Ancora Tu
DYEAR=1900
DGENRE=
TTITLE0=Ancora Tu (Single Version)
TTITLE1=Ancora Tu (Extended Version)
TTITLE2=Ancora Tu (Karaoke Version)
TTITLE3=Un Autre Feu
EXTD=
EXTT0=
EXTT1=
EXTT2=
EXTT3=
PLAYORDER=
